<svg width="128" height="128" viewBox="0 0 128 128" fill="none" xmlns="http://www.w3.org/2000/svg">
  <defs>
    <linearGradient id="logo-bg" x1="18" y1="16" x2="112" y2="112" gradientUnits="userSpaceOnUse">
      <stop stop-color="#F5A24A"/>
      <stop offset="1" stop-color="#D95173"/>
    </linearGradient>
    <linearGradient id="logo-heart" x1="64" y1="34" x2="64" y2="94" gradientUnits="userSpaceOnUse">
      <stop stop-color="#FFF8EE"/>
      <stop offset="1" stop-color="#FFFFFF"/>
    </linearGradient>
  </defs>
  <rect x="8" y="8" width="112" height="112" rx="30" fill="url(#logo-bg)"/>
  <rect x="8" y="8" width="112" height="112" rx="30" fill="black" fill-opacity="0.05"/>
  <path d="M64 94C61.4 94 58.8 92.7 56.9 90.5L34.4 64.9C29.1 58.8 29.5 49.6 35.3 43.9C41.1 38.1 50.3 37.7 56.4 43L64 49.6L71.6 43C77.7 37.7 86.9 38.1 92.7 43.9C98.5 49.6 98.9 58.8 93.6 64.9L71.1 90.5C69.2 92.7 66.6 94 64 94Z" fill="url(#logo-heart)"/>
  <rect x="59" y="52" width="10" height="30" rx="4" fill="#D97722"/>
  <rect x="49" y="62" width="30" height="10" rx="4" fill="#D97722"/>
</svg>
